<?xml version="1.0" encoding="utf-8"?>
<!-- Generator: Adobe Illustrator 22.0.1, SVG Export Plug-In . SVG Version: 6.00 Build 0)  -->
<svg version="1.1" id="Layer_1" xmlns="http://www.w3.org/2000/svg" xmlns:xlink="http://www.w3.org/1999/xlink" x="0px" y="0px"
	 viewBox="0 0 351.9 119.9" style="enable-background:new 0 0 351.9 119.9;" xml:space="preserve">
<style type="text/css">
	.st0{fill:#00609C;}
</style>
<path d="M119.3,11.3C118.7,5,111.1,0.4,95.8,0.4c-9.3,0-16.1,1.3-21,3.4c-4.8,2-7.3,4.9-7.9,8c-0.8,4.2,2.1,6.9,5.3,8.7
	c3,1.8,7.4,3.4,12.8,5c4.9,1.6,7.6,2.4,9.8,3.3c2.3,1,3.3,2.2,3,3.9c-0.2,1-0.9,2-2.4,2.7c-1.5,0.7-3.9,1.4-7.3,1.4
	c-5.2,0-7.5-1.9-8.1-4.5l-18.9,0.5c0.5,6.5,7.8,11.4,25.8,11.4c10.4,0,17.6-1.9,22.5-4.2c5.2-2.5,7.8-5.7,8.3-8.8
	c0.7-3.8-1.8-6.6-5.1-8.5c-2.8-1.6-6.6-2.9-11.9-4.4c-5.3-1.4-7.6-2-10.4-3.1c-3.1-1.1-4.4-2.5-4.1-4.2c0.1-0.9,0.9-1.7,2.1-2.3
	c1.5-0.6,3.7-1,5.8-1c4.6,0,6.4,1.8,7.1,3.9L119.3,11.3z"/>
<path d="M219.1,31.8c-1.7-5.2-5.9-15.5-12.8-30.5h-19.5l-5.6,42.2h12.9c2-15.1,3.1-25.4,3.5-30.5h0.4c1.6,5.1,5.9,15.4,12.8,30.5
	h19.5l5.6-42.2h-13c-2,15-3.1,25.3-3.4,30.5H219.1z"/>
<path d="M153.3,0.4c-16.1,0-27.5,7-29.5,21.8l0,0.1c-2,14.9,7.6,21.9,23.7,21.9c16.1,0,27.5-7,29.5-21.9
	C179,7.5,169.4,0.4,153.3,0.4 M162.5,22.3c-1.5,11-7.8,14.5-14,14.5c-6.2,0-11.7-3.5-10.2-14.5c1.5-11.1,7.8-14.6,14-14.6h0.1
	C158.6,7.7,164,11.3,162.5,22.3"/>
<path d="M267.9,1.3h-22.5l-5.6,42.2h22.9c21,0,29.3-7.9,31.1-21.4C295.7,8.3,287.8,1.3,267.9,1.3 M279.3,22.4
	c-1.4,10.4-7.2,13.8-16.5,13.8H255l3.6-27.6h7.7C277.6,8.6,280.4,14.4,279.3,22.4"/>
<path d="M334.5,1.3h-19.3l-24.1,42.2h15.2l4.8-10.1h19l2.2,10.1h15.2L334.5,1.3z M314.8,26.1l4.5-9.4c1.4-2.8,2.9-5.8,4.3-9.3h0.7
	c0.5,3.6,1.2,6.4,1.9,9.3l2,9.4H314.8z"/>
<path class="st0" d="M148.3,119.7c0,0,179.9-13.3,201.7-39.7C365.9,60.7,246,57.2,195.3,55.4c-50.6-1.8-132.2-3.1-150.5-5
	C-15,44.3,34.4,39.2,53,35.1c0,0-106.6,12.6-16.8,20.7c14.2,1.3,81.4,1.9,132,3.6c50.6,1.8,164.5,10.6,139.7,24
	C264,107.1,148.3,119.7,148.3,119.7"/>
</svg>
