<?xml version="1.0" encoding="utf-8"?>
<!-- Generator: Adobe Illustrator 16.0.0, SVG Export Plug-In . SVG Version: 6.00 Build 0)  -->
<!DOCTYPE svg PUBLIC "-//W3C//DTD SVG 1.1//EN" "http://www.w3.org/Graphics/SVG/1.1/DTD/svg11.dtd">
<svg version="1.1" id="Layer_1" xmlns="http://www.w3.org/2000/svg" xmlns:xlink="http://www.w3.org/1999/xlink" x="0px" y="0px"
	 width="277.171px" height="52.25px" viewBox="0 0 277.171 52.25" enable-background="new 0 0 277.171 52.25" xml:space="preserve">
<line fill="none" x1="314.919" y1="125.316" x2="314.919" y2="-72.352"/>
<polygon fill="#FFFFFF" points="132.087,22.475 132.087,24.167 124.813,24.167 124.813,45.482 123.121,45.482 123.121,24.167 
	115.846,24.167 115.846,22.475 "/>
<path fill="#FFFFFF" d="M150.391,37.904h-14.549v1.658c0,1.173,0.411,2.171,1.235,2.994c0.822,0.823,1.821,1.235,2.994,1.235h4.398
	c1.173,0,2.171-0.417,2.994-1.252c0.823-0.834,1.235-1.838,1.235-3.011h1.691v0.034c0,1.624-0.581,3.017-1.742,4.178
	c-1.162,1.162-2.555,1.743-4.179,1.743h-4.398c-1.624,0-3.018-0.581-4.179-1.743c-1.162-1.161-1.742-2.554-1.742-4.178v-4.399
	c0-1.624,0.58-3.016,1.742-4.179c1.161-1.162,2.555-1.742,4.179-1.742h4.398c1.624,0,3.017,0.58,4.179,1.742
	c1.161,1.163,1.742,2.555,1.742,4.179V37.904z M148.699,36.212v-1.049c0-1.172-0.412-2.171-1.235-2.994
	c-0.823-0.824-1.821-1.235-2.994-1.235h-4.398c-1.173,0-2.172,0.411-2.994,1.235c-0.824,0.823-1.235,1.822-1.235,2.994v1.049
	H148.699z"/>
<path fill="#FFFFFF" d="M169.744,39.562c0,1.624-0.581,3.017-1.742,4.178c-1.162,1.162-2.555,1.743-4.179,1.743h-4.398
	c-1.624,0-3.017-0.581-4.179-1.743c-1.162-1.161-1.742-2.554-1.742-4.178v-4.399c0-1.624,0.58-3.017,1.742-4.179
	s2.555-1.742,4.179-1.742h4.398c1.646,0,3.045,0.575,4.195,1.725c1.151,1.151,1.726,2.561,1.726,4.23l-1.691-0.034
	c0-1.172-0.413-2.171-1.234-2.995c-0.824-0.823-1.822-1.234-2.995-1.234h-4.398c-1.173,0-2.171,0.411-2.994,1.234
	c-0.823,0.824-1.235,1.823-1.235,2.995v4.399c0,1.173,0.412,2.171,1.235,2.994c0.823,0.823,1.821,1.235,2.994,1.235h4.398
	c1.173,0,2.171-0.417,2.995-1.252c0.821-0.834,1.234-1.838,1.234-3.011h1.691V39.562z"/>
<path fill="#FFFFFF" d="M188.693,45.483h-1.692v-10.32c0-1.172-0.412-2.171-1.236-2.994c-0.823-0.824-1.82-1.235-2.992-1.235h-4.4
	c-1.172,0-2.172,0.411-2.994,1.235c-0.823,0.823-1.235,1.822-1.235,2.994v10.32h-1.691V29.242h1.691v1.793
	c1.15-1.195,2.56-1.793,4.229-1.793h4.4c1.624,0,3.017,0.58,4.177,1.742c1.161,1.163,1.744,2.555,1.744,4.179V45.483z"/>
<path fill="#FFFFFF" d="M207.742,39.562c0,1.624-0.582,3.017-1.743,4.178c-1.161,1.162-2.553,1.743-4.178,1.743h-4.4
	c-1.624,0-3.018-0.581-4.177-1.743c-1.163-1.161-1.744-2.554-1.744-4.178v-4.399c0-1.624,0.581-3.017,1.744-4.179
	c1.159-1.162,2.553-1.742,4.177-1.742h4.4c1.625,0,3.017,0.58,4.178,1.742s1.743,2.555,1.743,4.179V39.562z M206.05,39.562v-4.399
	c0-1.172-0.411-2.171-1.236-2.995c-0.823-0.823-1.82-1.234-2.992-1.234h-4.4c-1.172,0-2.171,0.411-2.994,1.234
	c-0.823,0.824-1.234,1.823-1.234,2.995v4.399c0,1.173,0.411,2.171,1.234,2.994c0.823,0.823,1.822,1.235,2.994,1.235h4.4
	c1.172,0,2.169-0.412,2.992-1.235C205.639,41.733,206.05,40.735,206.05,39.562"/>
<rect x="211.192" y="22.475" fill="#FFFFFF" width="1.692" height="23.008"/>
<path fill="#FFFFFF" d="M232.509,39.562c0,1.624-0.581,3.017-1.742,4.178c-1.162,1.162-2.556,1.743-4.18,1.743h-4.397
	c-1.624,0-3.02-0.581-4.18-1.743c-1.161-1.161-1.741-2.554-1.741-4.178v-4.399c0-1.624,0.58-3.017,1.741-4.179
	c1.16-1.162,2.556-1.742,4.18-1.742h4.397c1.624,0,3.018,0.58,4.18,1.742c1.161,1.162,1.742,2.555,1.742,4.179V39.562z
	 M230.816,39.562v-4.399c0-1.172-0.411-2.171-1.234-2.995c-0.823-0.823-1.822-1.234-2.995-1.234h-4.397
	c-1.174,0-2.172,0.411-2.995,1.234c-0.824,0.824-1.234,1.823-1.234,2.995v4.399c0,1.173,0.41,2.171,1.234,2.994
	c0.823,0.823,1.821,1.235,2.995,1.235h4.397c1.173,0,2.172-0.412,2.995-1.235C230.405,41.733,230.816,40.735,230.816,39.562"/>
<path fill="#FFFFFF" d="M252.2,46.329c0,1.624-0.582,3.016-1.743,4.178c-1.161,1.161-2.554,1.743-4.177,1.743h-4.4
	c-1.646,0-3.044-0.575-4.196-1.726c-1.15-1.15-1.725-2.56-1.725-4.229h1.691c0,1.173,0.412,2.177,1.234,3.011
	c0.823,0.835,1.822,1.252,2.995,1.252h4.4c1.171,0,2.168-0.412,2.992-1.235c0.824-0.823,1.236-1.822,1.236-2.994V43.69
	c-0.114,0.27-0.588,0.62-1.422,1.049c-0.992,0.496-1.93,0.744-2.807,0.744h-4.4c-1.624,0-3.018-0.581-4.178-1.743
	c-1.163-1.161-1.743-2.554-1.743-4.178v-4.399c0-1.624,0.58-3.017,1.743-4.179c1.16-1.162,2.554-1.742,4.178-1.742h4.4
	c1.666,0,3.078,0.598,4.229,1.793v-1.793h1.691V46.329z M250.509,39.562v-4.399c0-1.172-0.412-2.171-1.236-2.995
	c-0.824-0.823-1.821-1.234-2.992-1.234h-4.4c-1.173,0-2.172,0.411-2.995,1.234c-0.822,0.824-1.234,1.823-1.234,2.995v4.399
	c0,1.173,0.412,2.171,1.234,2.994c0.823,0.823,1.822,1.235,2.995,1.235h4.4c1.171,0,2.168-0.412,2.992-1.235
	C250.097,41.733,250.509,40.735,250.509,39.562"/>
<rect x="255.719" y="29.242" fill="#FFFFFF" width="1.692" height="16.241"/>
<path fill="#FFFFFF" d="M277.171,45.483h-1.692V43.69c-1.149,1.196-2.562,1.793-4.229,1.793h-4.399
	c-1.714,0-3.112-0.462-4.195-1.387c-1.15-0.97-1.726-2.301-1.726-3.993c0-1.624,0.597-2.921,1.793-3.891
	c1.106-0.902,2.482-1.353,4.128-1.353h4.399c1.668,0,3.08,0.598,4.229,1.793v-1.827c0-1.15-0.411-2.086-1.236-2.809
	c-0.823-0.721-1.82-1.082-2.993-1.082h-4.399c-1.195,0-2.199,0.361-3.011,1.082c-0.813,0.723-1.218,1.67-1.218,2.843h-1.692v-0.034
	c0-1.646,0.575-2.989,1.726-4.027c1.151-1.036,2.55-1.556,4.195-1.556h4.399c1.646,0,3.045,0.52,4.195,1.556
	c1.149,1.038,1.727,2.381,1.727,4.027V45.483z M275.479,40.103c0-1.15-0.411-2.03-1.236-2.639c-0.823-0.609-1.82-0.914-2.993-0.914
	h-4.399c-1.264,0-2.268,0.305-3.011,0.914c-0.813,0.655-1.218,1.59-1.218,2.808c0,1.151,0.428,2.042,1.286,2.673
	c0.766,0.564,1.747,0.846,2.942,0.846h4.399c1.263,0,2.284-0.31,3.062-0.931C275.089,42.24,275.479,41.321,275.479,40.103"/>
<path fill="#F04B62" d="M58.39,23.884c-1.247,1.247-1.88,2.765-1.88,4.511v11.166c0,1.747,0.632,3.265,1.88,4.511
	c1.247,1.248,2.765,1.88,4.511,1.88h10.79V43.32H62.9c-1.053,0-1.924-0.359-2.662-1.097c-0.738-0.738-1.097-1.609-1.097-2.662
	v-4.266H73.69v-2.633H59.142v-4.267c0-1.053,0.358-1.923,1.097-2.661c0.738-0.739,1.608-1.098,2.662-1.098h10.79v-2.633H62.9
	C61.155,22.003,59.638,22.636,58.39,23.884"/>
<path fill="#F04B62" d="M86.247,28.772h-4.398c-1.747,0-3.264,0.632-4.512,1.879c-1.248,1.249-1.88,2.767-1.88,4.512v4.398
	c0,1.747,0.632,3.265,1.88,4.512s2.765,1.88,4.512,1.88h4.398c1.745,0,3.263-0.633,4.511-1.88s1.88-2.765,1.88-4.512v-4.398
	c0-1.745-0.632-3.262-1.88-4.512C89.51,29.404,87.992,28.772,86.247,28.772 M86.247,43.32h-4.398c-1.054,0-1.925-0.358-2.663-1.097
	c-0.738-0.738-1.097-1.609-1.097-2.662v-4.398c0-1.053,0.358-1.924,1.097-2.662c0.738-0.738,1.609-1.097,2.663-1.097h4.398
	c1.052,0,1.923,0.359,2.662,1.097c0.738,0.739,1.097,1.61,1.097,2.662v4.398c0,1.053-0.358,1.924-1.097,2.662
	C88.17,42.962,87.299,43.32,86.247,43.32"/>
<path fill="#F04B62" d="M113.006,32.287v-3.516h-2.632v3.516c0,1.052-0.358,1.922-1.098,2.661c-0.738,0.738-1.608,1.098-2.661,1.098
	h-4.398c-1.054,0-1.925-0.36-2.662-1.098c-0.739-0.738-1.098-1.608-1.098-2.661v-3.516h-2.632v3.516c0,2.151,0.84,3.854,2.496,5.075
	c-1.656,1.219-2.496,2.924-2.496,5.076v3.515h2.632v-3.515c0-1.053,0.358-1.924,1.098-2.662c0.738-0.739,1.609-1.098,2.662-1.098
	h4.398c1.052,0,1.922,0.359,2.661,1.098c0.739,0.739,1.098,1.609,1.098,2.662v3.515h2.632v-3.515c0-2.152-0.839-3.856-2.497-5.076
	C112.167,36.141,113.006,34.438,113.006,32.287"/>
<g opacity="0.35">
	<g>
		<defs>
			<rect id="SVGID_1_" x="8.268" width="36.408" height="40.762"/>
		</defs>
		<clipPath id="SVGID_2_">
			<use xlink:href="#SVGID_1_"  overflow="visible"/>
		</clipPath>
		<g clip-path="url(#SVGID_2_)">
			<defs>
				<path id="SVGID_3_" d="M39.674,9.501c6.728,9.044,7.625,22.331-3.29,29.663c-2.09,1.541-5.938,2.442-6.754,0.461
					C26.44,28,13.719,22.447,9.074,12.109C5.593,4.358,14.144,0.695,20.143,0.096C28.068-0.693,35.175,3.456,39.674,9.501"/>
			</defs>
			<clipPath id="SVGID_4_">
				<use xlink:href="#SVGID_3_"  overflow="visible"/>
			</clipPath>
			
				<radialGradient id="SVGID_5_" cx="-145.7124" cy="520.2402" r="1.0007" gradientTransform="matrix(19.3233 0 0 -19.3233 2842.0918 10073.1387)" gradientUnits="userSpaceOnUse">
				<stop  offset="0" style="stop-color:#135753"/>
				<stop  offset="0.1333" style="stop-color:#135753"/>
				<stop  offset="1" style="stop-color:#002E2C"/>
			</radialGradient>
			<rect x="5.593" y="-0.693" clip-path="url(#SVGID_4_)" fill="url(#SVGID_5_)" width="41.706" height="42.299"/>
		</g>
	</g>
</g>
<g opacity="0.35">
	<g>
		<defs>
			<rect id="SVGID_6_" x="4.423" y="8.131" width="36.642" height="40.97"/>
		</defs>
		<clipPath id="SVGID_7_">
			<use xlink:href="#SVGID_6_"  overflow="visible"/>
		</clipPath>
		<g clip-path="url(#SVGID_7_)">
			<defs>
				<path id="SVGID_8_" d="M8.603,39.925c-6.259-9.1-5.929-23.531,3.993-30.195c2.089-1.54,5.94-2.442,6.753-0.462
					c3.828,13.946,20.282,20.524,21.646,31.127c1.474,9.877-20.767,12.076-29.473,2.817C10.468,42.232,9.488,41.136,8.603,39.925"/>
			</defs>
			<clipPath id="SVGID_9_">
				<use xlink:href="#SVGID_8_"  overflow="visible"/>
			</clipPath>
			
				<radialGradient id="SVGID_10_" cx="-145.6694" cy="520.2402" r="1" gradientTransform="matrix(19.4332 0 0 -19.4332 2853.5784 10138.5596)" gradientUnits="userSpaceOnUse">
				<stop  offset="0" style="stop-color:#135753"/>
				<stop  offset="0.1333" style="stop-color:#135753"/>
				<stop  offset="1" style="stop-color:#002E2C"/>
			</radialGradient>
			<rect x="2.344" y="7.288" clip-path="url(#SVGID_9_)" fill="url(#SVGID_10_)" width="40.124" height="45.183"/>
		</g>
	</g>
</g>
<g opacity="0.35">
	<g>
		<defs>
			<rect id="SVGID_11_" x="4.423" y="8.131" width="36.642" height="40.97"/>
		</defs>
		<clipPath id="SVGID_12_">
			<use xlink:href="#SVGID_11_"  overflow="visible"/>
		</clipPath>
		<path clip-path="url(#SVGID_12_)" fill="#002E2C" d="M8.603,39.925c-6.259-9.1-5.929-23.531,3.993-30.195
			c2.089-1.54,5.94-2.442,6.753-0.462c3.828,13.946,20.282,20.524,21.646,31.127c1.474,9.877-20.767,12.076-29.473,2.817
			C10.467,42.232,9.487,41.136,8.603,39.925"/>
	</g>
</g>
<path fill="#F04B62" d="M39.925,40.498c-9.102,6.257-23.532,5.928-30.196-3.993c-1.541-2.09-2.442-5.94-0.464-6.754
	C23.212,25.924,29.788,9.47,40.393,8.107c9.877-1.475,12.075,20.765,2.816,29.472C42.229,38.632,41.134,39.611,39.925,40.498"/>
<path fill="#FFFFFF" d="M9.5,9.427c9.044-6.73,22.33-7.625,29.663,3.29c1.539,2.089,2.44,5.939,0.461,6.753
	c-11.627,3.189-17.18,15.912-27.516,20.557c-7.752,3.481-11.415-5.069-12.012-11.07C-0.694,21.03,3.453,13.924,9.5,9.427"/>
<g opacity="0.31">
	<g>
		<defs>
			<rect id="SVGID_13_" x="8.13" y="8.037" width="40.969" height="36.641"/>
		</defs>
		<clipPath id="SVGID_14_">
			<use xlink:href="#SVGID_13_"  overflow="visible"/>
		</clipPath>
		<path clip-path="url(#SVGID_14_)" fill="#F04B62" d="M39.925,40.498c-9.102,6.257-23.532,5.928-30.196-3.993
			c-1.541-2.09-2.442-5.94-0.464-6.754C23.212,25.924,29.788,9.47,40.393,8.107c9.877-1.475,12.075,20.765,2.816,29.472
			C42.229,38.632,41.134,39.611,39.925,40.498"/>
	</g>
</g>
<g opacity="0.35">
	<g>
		<defs>
			<rect id="SVGID_15_" x="8.268" width="36.408" height="40.762"/>
		</defs>
		<clipPath id="SVGID_16_">
			<use xlink:href="#SVGID_15_"  overflow="visible"/>
		</clipPath>
		<path clip-path="url(#SVGID_16_)" fill="#002E2C" d="M39.674,9.5c6.728,9.044,7.625,22.332-3.29,29.663
			c-2.09,1.541-5.939,2.442-6.754,0.462C26.44,28,13.719,22.446,9.074,12.109C5.593,4.357,14.144,0.694,20.143,0.097
			C28.068-0.693,35.175,3.456,39.674,9.5"/>
	</g>
</g>
<line fill="none" x1="314.918" y1="-314.74" x2="314.918" y2="520.652"/>
<line fill="none" x1="314.918" y1="520.652" x2="314.918" y2="-314.74"/>
</svg>
