<svg xmlns="http://www.w3.org/2000/svg" width="860.208" height="250.513" viewBox="0 0 86.208 25.513">
  <g id="MARCA_RGB_BRANCO__TAG_01" transform="translate(-73.28 -73.26)">
    <path id="Caminho_4742" data-name="Caminho 4742" d="M76.95,174.393c2.4,0,5.057-1.056,5.057-3.4,0-3.618-4.827-3.592-4.827-5.2,0-.476.343-.714,1.005-.714a6.833,6.833,0,0,1,2.77.87l.665-2.432a.3.3,0,0,0-.183-.369,8.97,8.97,0,0,0-3.335-.688c-2.533,0-4.194,1.32-4.194,3.324,0,3.47,4.882,3.742,4.882,5.277,0,.528-.45.793-1.134.793a8.262,8.262,0,0,1-3.15-.923.3.3,0,0,0-.424.167l-.782,2.157A6.334,6.334,0,0,0,76.95,174.393Z" transform="translate(-0.018 -78.239)" fill="#000" fill-rule="evenodd"/>
    <path id="Caminho_4743" data-name="Caminho 4743" d="M456.426,148c-.966,0-2.294.643-2.252,1.443l.483,9.322a1.788,1.788,0,0,0,3.533,0l.483-9.322C458.724,148.523,457.158,148,456.426,148Zm0,16.328a1.566,1.566,0,1,0-1.566-1.566,1.566,1.566,0,0,0,1.566,1.566Z" transform="translate(-334.086 -65.556)" fill="#000" fill-rule="evenodd"/>
    <path id="Caminho_4744" data-name="Caminho 4744" d="M76.195,79.036c-.938,0-1.475-.187-1.475-.747a.734.734,0,0,1,.662-.748,3.268,3.268,0,0,0,.778.086,2.186,2.186,0,0,0,2.476-2.171,1.99,1.99,0,0,0-.737-1.626l.907.071.044-.64-1.986.1a3.563,3.563,0,0,0-.705-.074,2.176,2.176,0,0,0-2.477,2.16,2.034,2.034,0,0,0,1.009,1.832,1.192,1.192,0,0,0-.721,1.106,1.051,1.051,0,0,0,.417.86,1.487,1.487,0,0,0-1.106,1.569c0,1.253.852,1.859,2.837,1.859,2.046,0,2.909-.646,2.909-1.9,0-2.025-2.844-1.744-2.834-1.744Zm-.045-5.087a1.682,1.682,0,1,1-.006,0Zm-.015,8.039c-1.584,0-2.03-.461-2.03-1.193,0-.762.431-1.078,2.076-1.078s2.045.316,2.045,1.037c0,1.421-2.089,1.229-2.089,1.229Zm5.239-6.916a2.239,2.239,0,0,1,2.074-1.052v-.737a2.581,2.581,0,0,0-2.074,1.024v-.9h-.837v6.051h.837Zm5.636,4.51a2.506,2.506,0,0,0,1.859-.892v.763H89.7V73.4h-.837v4.67a2.356,2.356,0,0,1-1.643.837c-.983,0-1.54-.648-1.54-2.046V73.4h-.837v3.529C84.848,78.35,85.432,79.571,87.009,79.581Zm7.634-6.3a3.051,3.051,0,0,0-1.9.692V73.4H91.9v9.144h.837V78.916a3.147,3.147,0,0,0,1.9.661,3.151,3.151,0,0,0,0-6.292Zm-.055,5.62a2.627,2.627,0,0,1-1.843-.822V74.741a2.674,2.674,0,0,1,1.843-.763,2.483,2.483,0,0,1,0,4.928Zm7.215.676a3.044,3.044,0,1,0-.006,0Zm0-.676a2.209,2.209,0,1,0-.006,0Z" transform="translate(0 0)" fill="#000" fill-rule="evenodd"/>
    <path id="Caminho_4745" data-name="Caminho 4745" d="M162.723,162.56a5.974,5.974,0,0,0,.1,11.947,9.585,9.585,0,0,0,5.012-1.448l-.435-1.516a.308.308,0,0,0-.409-.2,9.173,9.173,0,0,1-3.354.688c-2,0-3.4-1.056-3.564-2.533h8.1a.3.3,0,0,0,.3-.259,5.519,5.519,0,0,0-5.761-6.675Zm-2.636,5.092a2.539,2.539,0,0,1,2.458-2.533,2.447,2.447,0,0,1,2.643,2.193.3.3,0,0,1-.3.339Z" transform="translate(-73.292 -78.326)" fill="#000" fill-rule="evenodd"/>
    <path id="Caminho_4746" data-name="Caminho 4746" d="M275.116,164.164v-.983a.306.306,0,0,0-.3-.3H271.77v11.367h3.346v-7.726a.3.3,0,0,1,.1-.23,4.64,4.64,0,0,1,3.693-.907V162.9a.306.306,0,0,0-.319-.308A4.813,4.813,0,0,0,275.116,164.164Z" transform="translate(-174.098 -78.351)" fill="#000" fill-rule="evenodd"/>
    <path id="Caminho_4747" data-name="Caminho 4747" d="M351.115,165.105l-2.089,4.928a.308.308,0,0,1-.565,0l-2.089-4.928a.3.3,0,0,0-.283-.186H342.67l5.589,11.486a.3.3,0,0,0,.275.172h.409a.3.3,0,0,0,.275-.172l5.589-11.486H351.4A.3.3,0,0,0,351.115,165.105Z" transform="translate(-236.286 -80.396)" fill="#000" fill-rule="evenodd"/>
    <path id="Caminho_4748" data-name="Caminho 4748" d="M512.065,174.482a6.293,6.293,0,0,0,3.64-1.031l-.983-1.747a.307.307,0,0,0-.4-.123,4.454,4.454,0,0,1-1.943.417c-1.74,0-2.949-1.424-2.949-3.506s1.213-3.481,2.949-3.481a4.719,4.719,0,0,1,2.19.633l1-1.833a.3.3,0,0,0-.115-.409,7.122,7.122,0,0,0-3.387-.87c-3.564,0-5.935,2.212-5.935,6.013A5.623,5.623,0,0,0,512.065,174.482Z" transform="translate(-379.659 -78.3)" fill="#000" fill-rule="evenodd"/>
    <path id="Caminho_4749" data-name="Caminho 4749" d="M601.552,162.56a5.974,5.974,0,0,0,.1,11.947,9.585,9.585,0,0,0,5.012-1.448l-.435-1.516a.309.309,0,0,0-.409-.2,9.174,9.174,0,0,1-3.356.686c-2,0-3.4-1.056-3.564-2.533h8.11a.3.3,0,0,0,.3-.259,5.525,5.525,0,0,0-5.76-6.675Zm-2.636,5.092a2.538,2.538,0,0,1,2.458-2.533,2.447,2.447,0,0,1,2.643,2.193.3.3,0,0,1-.3.339Z" transform="translate(-458.196 -78.326)" fill="#000" fill-rule="evenodd"/>
    <path id="Caminho_4750" data-name="Caminho 4750" d="M707.64,174.428c2.4,0,5.062-1.056,5.062-3.4,0-3.618-4.827-3.592-4.827-5.2,0-.476.343-.714,1-.714a6.844,6.844,0,0,1,2.771.87l.665-2.432a.3.3,0,0,0-.182-.369,8.97,8.97,0,0,0-3.34-.683c-2.533,0-4.2,1.32-4.2,3.324,0,3.47,4.882,3.742,4.882,5.277,0,.528-.45.793-1.133.793a8.256,8.256,0,0,1-3.15-.923.3.3,0,0,0-.424.167L704,173.287A6.341,6.341,0,0,0,707.64,174.428Z" transform="translate(-553.214 -78.274)" fill="#000" fill-rule="evenodd"/>
  </g>
</svg>
